<?xml version="1.0" encoding="UTF-8"?><svg id="Layer_1" xmlns="http://www.w3.org/2000/svg" viewBox="0 0 549.190995820568787 262.354141660446658"><defs><style>.cls-1{fill:#fff;stroke-width:0px;}</style></defs><path class="cls-1" d="m549.19097900390625,167.797955951019503c-.00994873046875-24.2559814453125.00103759765625-48.512954711914062-.01300048828125-72.768966674804688-.0009765625-2.368988037109375-.09295654296875-4.738998413087756-.1939697265625-7.108001708988013-.2200927734375-5.135406494138806-.9749755859375-10.19940185546875-2.0999755859375-15.21337890625-7.403076171875-33.005020141599744-32.197998046875-59.513015747068494-64.617034912109375-69.048019409179688-7.407012939453125-2.177978515619543-14.970001220703125-3.451995849609375-22.699005126953125-3.634002685539599-2.405975341796875-.056976318359375-4.81500244140625-.001007080079944-7.22198486328125-.001007080079944h-162.863037109375v1.790008544920056c.00299072265625,31.993011474609375.006011962890625,63.985000610349744.00799560546875,95.9774169921875,0,23.4010009765625-.01300048828125,46.802001953125.01605224609375,70.202972412109375.00396728515625,2.95001220703125.176971435546875,5.90301513671875.373992919921875,8.847015380859375.391998291015625,5.87200927734375,1.5069580078125,11.62200927734375,3.067962646484375,17.290008544921875,7.926025390625,28.77197265625,29.87603759765625,52.496978759765625,57.9100341796875,62.62799072265625,10.596954345703125,3.829010009765625,21.53497314453125,5.592987060546875,32.781005859375,5.59100341796875,23.167999267578125-.00299072265625,46.33599853515625.018035888671875,69.502960205078125-.019989013671875,3.727020263671875-.006011962890625,7.45703125-.201019287109375,11.17901611328125-.4210205078125,4.62298583984375-.27301025390625,9.178985595703125-1.066986083984375,13.663055419921875-2.197998046875,23.2529296875-5.863006591796875,41.65997314453125-18.7349853515625,55.20794677734375-38.49298095703125,7.4639892578125-10.88702392578125,12.2249755859375-22.917022705078125,14.552001953125-35.905029296875,1.0369873046875-5.78997802734375,1.44903564453125-11.634979248046875,1.44598388671875-17.516021728515625h0Zm-89.1510009765625-105.994354248041418c-.1419677734375,3.854995727529968-.5419921875,7.668991088859912-1.49798583984375,11.409988403320312-1.35101318359375,5.281997680658606-3.677978515625,10.050003051748718-7.47802734375,14.030410766599744-3.052001953125,3.197006225578662-6.692962646484375,5.529006958004175-10.72900390625,7.27299499511355-4.77099609375,2.061996459960938-9.7769775390625,3.24200439453125-14.90594482421875,3.98699951171875-5.6290283203125.818008422851562-11.28802490234375,1.000991821289062-16.96405029296875.944992065429688-2.7969970703125-.027984619140625-5.595947265625-.004989624023438-8.393951416015625-.004989624023438h-1.378021240234375v-1.401016235351562c.001007080078125-20.946380615238013.001007080078125-41.892395019527612.001007080078125-62.839385986328125,0-2.798004150388806.059967041015625-5.593002319339575.49798583984375-8.365997314449487.08001708984375-.498016357429151.17901611328125-.993011474609375.27203369140625-1.487991333009631.371978759765625-1.980010986329944,1.484954833984375-3.188018798829944,3.468963623046875-3.778015136720569,2.47003173828125-.73298645019895,4.97100830078125-1.27400207519895,7.518035888671875-1.5,2.975982666015625-.264999389650256,5.970977783203125-.449996948240369,8.954986572265625-.430999755859375,5.89300537109375.036010742189319,11.688995361328125.824005126949487,17.2669677734375,2.835998535159888,10.885986328125,3.929000854490369,17.9520263671875,11.507003784179688,21.355987548828125,22.520004272459119,1.690032958984375,5.470993041990369,2.221038818359375,11.093002319330481,2.011016845703125,16.807006835941138h0Zm10.630035400390625,91.229400634760168c1.444976806640625,5.8909912109375,1.837982177734375,11.87298583984375,1.485992431640625,17.927978515625-.28802490234375,4.954010009765625-1.08099365234375,9.80303955078125-2.721038818359375,14.48699951171875-3.867950439453125,11.045013427734375-11.35894775390625,18.711029052734375-22.007965087890625,23.38104248046875-4.50299072265625,1.9749755859375-9.21099853515625,3.22998046875-14.0670166015625,3.982940673828125-4.1939697265625.6500244140625-8.40997314453125.975006103515625-12.64801025390625.85302734375-3.882965087890625-.111968994140625-7.747955322265625-.39599609375-11.5009765625-1.553985595703125-4.207000732421875-1.29901123046875-6.99700927734375-4.001007080078125-8.4429931640625-8.154998779296875-1.031005859375-2.958984375-1.561004638671875-6.01800537109375-1.76300048828125-9.1199951171875-.2020263671875-3.0989990234375-.2950439453125-6.21002197265625-.29901123046875-9.316009521484375-.02398681640625-21.1400146484375-.01300048828125-42.281005859375-.01300048828125-63.420989990234375v-1.7650146484375c.54901123046875-.027984619140625.92901611328125-.064010620117188,1.308990478515625-.063003540039062,4.972991943359375.011001586914062,9.949981689453125-.063995361328125,14.922027587890625.063003540039062,8.99298095703125.228012084960938,17.8800048828125,1.2760009765625,26.52099609375,3.931991577148438,4.39697265625,1.352005004882812,8.6009521484375,3.13800048828125,12.51898193359375,5.568008422851562,8.761993408203125,5.433013916015625,14.260986328125,13.227996826171875,16.706024169921875,23.199005126953125h0Zm69.671966552734375,16.88897705078125c-.198974609375,21.550048828125-7.7630615234375,40.405029296875-22.30499267578125,56.33099365234375-11.44195556640625,12.529998779296875-25.4990234375,20.789031982421875-41.98101806640625,24.877044677734375-.00799560546875.00299072265625-.0169677734375.004974365234375-.025970458984375.0069580078125-.003997802734375.001007080078125-.0059814453125.001007080078125-.009979248046875.00201416015625-4.07305908203125,1.010986328125-8.19805908203125,1.76300048828125-12.39300537109375,2.0159912109375-3.178009033203125.1920166015625-6.36199951171875.38299560546875-9.54400634765625.38800048828125-23.8280029296875.031005859375-47.65704345703125.063995361328125-71.48504638671875.001007080078125-16.827972412109375-.04498291015625-32.324951171875-4.670989990234375-46.397979736328125-13.944000244140625-7.493988037109375-4.93798828125-14.001983642578125-10.96099853515625-19.5889892578125-17.97998046875-4.584991455078125-5.759979248046875-7.256011962890625-12.3480224609375-8.41400146484375-19.58001708984375-.801971435546875-5.01300048828125-.96099853515625-10.05999755859375-.511016845703125-15.108001708984375.462005615234375-5.1829833984375,1.050018310546875-10.353973388671875,1.6199951171875-15.5269775390625.545013427734375-4.941009521484375,1.132049560546875-9.8780517578125,1.71502685546875-14.815032958984375.5780029296875-4.897979736328125,1.180023193359375-9.79498291015625,1.75897216796875-14.6939697265625.508026123046875-4.280029296875.995025634765625-8.563995361328125,1.5-12.84503173828125.500030517578125-4.24298095703125,1.0150146484375-8.483993530273438,1.51702880859375-12.72698974609375.50701904296875-4.281997680664062,1.003021240234375-8.563980102539062,1.507965087890625-12.845993041992188.50103759765625-4.243011474609375,1.00604248046875-8.4849853515625,1.510040283203125-12.727005004880994.342987060546875-2.893997192390088.66497802734375-5.789398193359375,1.0469970703125-8.677398681638806.114990234375-.865005493171338-.113983154296875-1.434005737310144-.81500244140625-1.983001708989832-1.7130126953125-1.339996337890625-3.344024658203125-2.784988403320312-5.03399658203125-4.155990600580481-.521026611328125-.423004150390625-.79302978515625-.873001098640088-.787994384765625-1.570999145509631.024993896484375-3.964996337890625.0159912109375-11.89501953125.0159912109375-11.89501953125l-.00701904296875-1.191986083989832h10.927001953125v-20.498001098630994l-5.35296630859375-.009002685550513s12.3699951171875-9.666000366209119,18.173980712890625-13.974990844719287c.574005126953125-.447021484380457,1.28802490234375-1.503005981450769,1.277008056640625-2.406005859380457-.047027587890625-3.576004028320312-.0050048828125-6.932006835930224-.0040283203125-10.509002685539599,0-.348999023439319-.019012451171875-.704010009769263.031036376953125-1.046997070319776.071990966796875-.493011474609375.371978759765625-.835998535150793.79095458984375-.972991943359375.136016845703125-.049987792961474.2850341796875-.078002929680224.44500732421875-.079010009760168.625-.006988525390625,1.11004638671875.378997802728918,1.218017578125,1.026000976558862.05596923828125.342010498050513.037017822265625.696990966800513.037017822265625,1.045989990239832.001953125,3.653991699211474.077972412109375,6.883010864250537.03497314453125,10.536010742180224,0,.892990112310144.607025146484375,1.958984375,1.212982177734375,2.406005859380457,5.764007568359375,4.296997070310681,18.30804443359375,13.974990844719287,18.30804443359375,13.974990844719287h-5.364044189453125l-.035980224609375.387008667001282v20.119995117180224l10.98602294921875-.009002685541418s-.00799560546875,1.286010742191138-.01800537109375,3.101013183590112c0,2.602005004880994.00201416015625,7.231994628909888.0169677734375,9.970977783201306.0040283203125.643020629890088-.20599365234375,1.087005615239832-.7039794921875,1.492004394538526-1.80902099609375,1.472015380861194-3.572998046875,2.998016357420056-5.387969970703125,4.461013793941675-.51800537109375.416000366209119-.6920166015625.851989746088293-.6190185546875,1.494979858398438.444000244140625,3.8580169677698.868011474609375,7.719406127931506,1.287994384765625,11.580413818359375.42498779296875,3.900009155273438.834014892578125,7.802993774414062,1.2559814453125,11.702987670898438.42999267578125,3.97802734375.870025634765625,7.954025268554688,1.302032470703125,11.9310302734375.423980712890625,3.899978637695312.839996337890625,7.800979614257812,1.262969970703125,11.701980590820312.42999267578125,3.977020263671875.86602783203125,7.9539794921875,1.297027587890625,11.930999755859375.423004150390625,3.901031494140625.840972900390625,7.802032470703125,1.264007568359375,11.7020263671875.43597412109375,4.0159912109375.876953125,8.031982421875,1.31195068359375,12.0479736328125.42303466796875,3.9000244140625.8370361328125,7.800994873046875,1.260009765625,11.701019287109375.42999267578125,3.97796630859375.86700439453125,7.954986572265625,1.299041748046875,11.93194580078125.422943115234375,3.900054931640625.832977294921875,7.802032470703125,1.262969970703125,11.7020263671875.5579833984375,5.053009033203125.853973388671875,10.146026611328125,2.10400390625,15.100006103515625.397979736328125,1.5780029296875.8590087890625,3.14898681640625,1.42401123046875,4.675018310546875,2.2249755859375,6.009979248046875,6.39898681640625,10.08099365234375,12.402984619140625,12.302978515625,3.29901123046875,1.22100830078125,6.72100830078125,1.912017822265625,10.197021484375,2.30401611328125,5.294952392578125.59698486328125,10.61395263671875.881011962890625,15.941986083984375.65899658203125,5.62799072265625-.2340087890625,11.26397705078125-.431976318359375,16.87298583984375-.910980224609375,8.365997314453125-.71502685546875,16.6290283203125-2.009033203125,24.732025146484375-4.10003662109375,2.702972412109375-.697998046875,5.387969970703125-1.4849853515625,8.053009033203125-2.36895751953125,9.391998291015625-3.11602783203125,18.18499755859375-7.405029296875,26.1209716796875-13.368011474609375,8.552001953125-6.428009033203125,15.5140380859375-14.203033447265625,20.2030029296875-23.894012451171875,3.041015625-6.2860107421875,4.8680419921875-12.91302490234375,5.56103515625-19.862030029296875.87298583984375-8.77496337890625.1719970703125-17.387969970703125-2.675048828125-25.762969970703125-3.36895751953125-9.910018920898438-9.4639892578125-17.838973999023438-17.7679443359375-24.126007080078125-6.572021484375-4.975997924804688-13.901031494140625-8.488998413085938-21.6650390625-11.14300537109375-2.2020263671875-.751983642578125-4.444000244140625-1.388992309570312-6.6669921875-2.076995849609375-.36602783203125-.113998413085938-.7340087890625-.2239990234375-1.385986328125-.421005249023438.574951171875-.30499267578125.91900634765625-.5059814453125,1.27899169921875-.675994873046875,5.218994140625-2.46099853515625,10.156005859375-5.378997802734375,14.66998291015625-8.99200439453125,10.26898193359375-8.218994140623181,16.926025390625-18.659393310543237,19.0770263671875-31.708389282224744,2.29998779296875-13.947006225589575.12298583984375-27.160003662109375-7.22003173828125-39.367996215818494-.43701171875-.728012084960938-.9959716796875-1.53302001953125-1.6259765625-2.375015258790881-3.696044921875-4.735992431640625-10.05804443359375-10.627990722659888-10.22601318359375-10.973999023439319.3599853515625.101989746090112.727020263671875.18701171875,1.08099365234375.309997558590112,24.1240234375,8.408004760749463,41.23504638671875,24.376007080079944,51.39300537109375,47.788009643560144,2.95404052734375,6.808013916008349,4.81402587890625,13.945999145509631,5.739990234375,21.300003051759631.4310302734375,3.425003051748718.72705078125,6.891403198240369.7349853515625,10.33940124511355.06005859375,25.849990844726562.21502685546875,51.703018188476562-.02398681640625,77.550979614257812h0Zm-207.446014404296875-108.664382934572131s8.817047119140625.030990600589575,13.283050537109375.030990600589575c0-6.923995971679688-.02001953125-20.518997192390088-.02001953125-20.518997192390088l-13.263031005859375-.005996704099744v20.494003295900256h0Z"/><path class="cls-1" d="m27.47998046875,194.318005999847628c6.161041259765625,0,11.20501708984375-1.443023681640625,15.130004882813409-4.334014892578125,3.926010131835028-2.889984130859375,5.889007568358466-6.760986328125,5.889007568358466-11.614013671875,0-3.48895263671875-1.201004028320312-6.527984619140625-3.598983764648438-9.118988037109375-2.400039672851562-2.5899658203125-5.589035034179688-4.21099853515625-9.569015502929688-4.865997314453125,7.524993896484375-2.290008544921875,11.285995483398438-6.787994384765625,11.285995483398438-13.4940185546875,0-4.25396728515625-1.662994384765625-7.6199951171875-4.988006591796875-10.100982666015625-3.32598876953125-2.480987548828125-8.069992065429688-3.72198486328125-14.229995727539062-3.72198486328125H0v57.25h27.47998046875Zm-15.04901123046875-46.94500732421875h13.086029052734375c2.8900146484375,0,5.056976318359375.47900390625,6.501983642578125,1.430999755859375,1.444030761719659.95501708984375,2.167022705078125,2.52398681640625,2.167022705078125,4.704010009765625,0,4.142974853515625-2.8909912109375,6.214996337890625-8.66900634765625,6.214996337890625h-13.086029052734375v-12.350006103515625h0Zm0,22.326995849609375h13.250030517578125c6.6510009765625,0,9.977981567382812,2.400970458984375,9.977981567382812,7.197998046875,0,4.7440185546875-3.326980590820312,7.115020751953125-9.977981567382812,7.115020751953125h-13.250030517578125v-14.313018798828125h0Zm47.680038452148438,19.75201416015625c4.089981079101562,4.11798095703125,9.213973999023438,6.175018310546875,15.376983642578125,6.175018310546875,6.378997802734375,0,11.557998657226562-1.989044189453125,15.53900146484375-5.971038818359375,3.978988647461847-3.977996826171875,5.970001220703125-9.240997314453125,5.970001220703125-15.785003662109375,0-6.433013916015625-2.003997802734375-11.65399169921875-6.011001586914062-15.6610107421875-4.007003784179688-4.006988525390625-9.17401123046875-6.010986328125-15.498001098632812-6.010986328125-6.27099609375,0-11.423995971679688,2.003997802734375-15.457992553710938,6.010986328125-4.035003662108466,4.00701904296875-6.052001953125,9.227996826171875-6.052001953125,15.6610107421875,0,6.271026611328125,2.043991088867188,11.46502685546875,6.133010864257812,15.581024169921875h0Zm15.376983642578125-3.066009521484375c-2.944000244140625,0-5.249008178710938-1.04998779296875-6.910995483398438-3.1500244140625-1.665008544920966-2.09796142578125-2.4949951171875-5.16497802734375-2.4949951171875-9.20098876953125,0-4.03399658203125.829986572266534-7.154998779296875,2.4949951171875-9.363983154296875,1.6619873046875-2.2080078125,3.966995239257812-3.31201171875,6.910995483398438-3.31201171875,2.943008422851562,0,5.24700927734375,1.10400390625,6.909988403320312,3.31201171875,1.663009643554688,2.208984375,2.495010375976562,5.329986572265625,2.495010375976562,9.363983154296875,0,4.0360107421875-.832000732421875,7.10302734375-2.495010375976562,9.20098876953125-1.662979125976562,2.10003662109375-3.96697998046875,3.1500244140625-6.909988403320312,3.1500244140625h0Zm32.345001220703125,5.886993408203125c3.571014404296875,2.12701416015625,7.781997680664062,3.190032958984375,12.634994506835938,3.190032958984375,5.889007568359375,0,10.522994995117188-1.2120361328125,13.904998779296875-3.6390380859375,3.3800048828125-2.425994873046875,5.070022583007812-5.711029052734375,5.070022583007812-9.855010986328125,0-6.70697021484375-4.689010620117188-10.959991455078125-14.0670166015625-12.757965087890625l-5.64300537109375-1.06500244140625c-2.181991577148438-.380035400390625-3.667999267578125-.858001708984375-4.456985473631903-1.430023193359375-.791000366211847-.572998046875-1.186004638672784-1.431976318359375-1.186004638672784-2.576995849609375,0-1.197967529296875.503005981445312-2.152984619140625,1.511993408203125-2.861968994140625,1.009002685546875-.708038330078125,2.440994262695312-1.063018798828125,4.294998168945312-1.063018798828125,4.089004516601562,0,6.841018676757812,1.90899658203125,8.259994506835938,5.725006103515625l9.568008422851562-4.33502197265625c-1.09100341796875-2.561981201171875-3.121002197265625-4.769989013671875-6.091995239257812-6.623992919921875-2.971984863280341-1.852996826171875-6.693008422851562-2.781005859375-11.165008544921875-2.781005859375-5.397003173828125,0-9.676986694335938,1.1719970703125-12.839996337890625,3.516021728515625-3.162994384765625,2.345977783203125-4.742996215820312,5.47998046875-4.742996215820312,9.404998779296875,0,3.76300048828125,1.07598876953125,6.57098388671875,3.231002807617188,8.425018310546875,2.152984619140625,1.854949951171875,5.602996826171875,3.244964599609375,10.344985961914062,4.17095947265625l5.8070068359375,1.14501953125c1.852996826171875.381988525390625,3.160995483398438.91400146484375,3.925003051758722,1.593963623046875.764999389647528.68304443359375,1.147003173827216,1.596038818359375,1.147003173827216,2.74102783203125,0,1.199005126953125-.560989379882812,2.181976318359375-1.678009033202216,2.944000244140625-1.117004394532159.76397705078125-2.630996704102472,1.144989013671875-4.539001464844659,1.144989013671875-3.43499755859375,0-5.752990722655341-.76300048828125-6.950988769530341-2.28900146484375-1.256011962891534-1.58203125-2.046005249024347-3.108978271484375-2.372009277344659-4.58099365234375l-10.550979614257812,3.352996826171875c.8179931640625,3.54400634765625,3.011978149414062,6.378997802734375,6.583984375,8.5050048828125h0Zm44.451004028320312-.899017333984375c1.85198974609375,1.9630126953125,4.388992309570312,2.94403076171875,7.606002807617188,2.94403076171875h13.658004760742188v-9.242034912109375h-8.832000732421875c-1.2550048828125,0-2.167007446289062-.285980224609375-2.740005493164062-.85699462890625-.573013305664062-.573974609375-.8590087890625-1.485992431640625-.8590087890625-2.740966796875v-19.219024658203125h10.63299560546875v-8.8330078125h-10.63299560546875v-12.8399658203125h-11.613998413085938v12.8399658203125h-8.587997436523438v8.8330078125h8.587997436523438v21.345001220703125c0,3.219024658203125.926010131835938,5.8070068359375,2.781005859375,7.769989013671875h0Zm30.097015380859375-1.921966552734375c4.0889892578125,4.11798095703125,9.213973999023438,6.175018310546875,15.375,6.175018310546875,6.379974365234375,0,11.559982299804688-1.989044189453125,15.53997802734375-5.971038818359375,3.979995727539062-3.977996826171875,5.970001220704034-9.240997314453125,5.970001220704034-15.785003662109375,0-6.433013916015625-2.002990722657159-11.65399169921875-6.011001586914972-15.6610107421875-4.007980346679688-4.006988525390625-9.175003051757812-6.010986328125-15.498977661132812-6.010986328125-6.27001953125,0-11.422027587890625,2.003997802734375-15.457015991210938,6.010986328125-4.0360107421875,4.00701904296875-6.052001953125,9.227996826171875-6.052001953125,15.6610107421875,0,6.271026611328125,2.044998168945312,11.46502685546875,6.134017944335938,15.581024169921875h0Zm15.375-3.066009521484375c-2.944000244140625,0-5.248016357421875-1.04998779296875-6.911026000976562-3.1500244140625-1.662994384765625-2.09796142578125-2.492996215820312-5.16497802734375-2.492996215820312-9.20098876953125,0-4.03399658203125.830001831054688-7.154998779296875,2.492996215820312-9.363983154296875,1.663009643554688-2.2080078125,3.967025756835938-3.31201171875,6.911026000976562-3.31201171875,2.944976806640625,0,5.246978759765625,1.10400390625,6.911972045898438,3.31201171875,1.662002563476562,2.208984375,2.493026733399347,5.329986572265625,2.493026733399347,9.363983154296875,0,4.0360107421875-.831024169922784,7.10302734375-2.493026733399347,9.20098876953125-1.664993286132812,2.10003662109375-3.966995239257812,3.1500244140625-6.911972045898438,3.1500244140625h0Zm40.810958862304688,7.9320068359375v-19.38201904296875c0-5.125.899002075195312-8.77899169921875,2.699020385743097-10.9599609375,1.199005126952216-1.4730224609375,3.025970458983466-2.20806884765625,5.47900390625-2.20806884765625,4.361968994139716,0,6.543975830077216,2.564056396484375,6.543975830077216,7.687042236328125v24.863006591796875h11.612030029296875v-27.39801025390625c0-4.68798828125-1.13201904296875-8.31298828125-3.39398193359375-10.876983642578125-2.262054443359375-2.56201171875-5.6300048828125-3.844024658203125-10.100006103515625-3.844024658203125-5.72503662109375,0-10.114013671875,2.508026123046875-13.167022705078125,7.524017333984375v-6.297027587890625h-11.287002563476562v40.89202880859375h11.613983154296875Z"/><path class="cls-1" d="m7.063995361328125,113.212995013519503c4.6619873046875,4.253005981445312,10.8909912109375,6.3800048828125,18.688995361328125,6.3800048828125,7.631988525390625,0,13.82098388671875-2.126998901367188,18.565002441407159-6.3800048828125,4.744003295897528-4.25299072265625,7.115005493163153-10.003997802734375,7.115005493163153-17.257003784179688v-34.922393798831763h-12.431015014648438v32.96040344238645c0,9.977996826171875-4.415985107421875,14.96600341796875-13.248992919921875,14.96600341796875-4.363983154296875,0-7.6619873046875-1.267013549804688-9.89599609375-3.803009033203125-2.236999511717841-2.534988403320312-3.35400390625-6.257003784179688-3.35400390625-11.162994384765625v-32.96040344238645H.071990966796875v34.922393798831763c0,7.253005981445312,2.33099365234375,13.004013061523438,6.99200439453125,17.257003784179688h0Zm69.068008422851562,5.070999145507812v-46.617401123050513l15.784988403320312,46.617401123050513h11.042007446289062l15.946990966796875-46.69940185546875v46.69940185546875h12.4320068359375v-57.250396728519263h-19.628997802734375l-9.569000244140625,27.888397216800513c-1.800003051757812,5.399002075195312-3.2449951171875,9.461013793945312-4.335006713867188,12.186996459960938-1.091003417967841-2.725982666015625-2.535003662109375-6.787994384765625-4.333984375-12.186996459960938l-9.405014038085938-27.888397216800513h-20.365005493164062v57.250396728519263h12.431015014648438Zm67.391983032226562-1.962997436523438c2.4530029296875,2.17999267578125,5.533996582032159,3.272003173828125,9.242004394532159,3.272003173828125,6.160003662108466,0,10.822998046875-2.426010131835938,13.985015869139716-7.279006958007812.434982299804688,3.979995727539062,2.88897705078125,5.970001220703125,7.3599853515625,5.970001220703125h8.914993286132812v-8.832992553710938h-3.597991943359375c-1.092010498046875,0-1.772018432617188-.135009765625-2.044998168945312-.40899658203125-.273010253905341-.272003173828125-.410003662109375-.954010009765625-.410003662109375-2.044021606445312v-14.966995239257812c0-5.234390258783606-1.566986083984375-9.187393188474744-4.701995849609375-11.858398437503638-3.135009765625-2.6719818115198-7.647003173828125-4.009002685541418-13.535995483398438-4.009002685541418-5.561004638671875,0-10.100006103515625,1.226013183590112-13.61700439453125,3.680999755861194-3.516006469726562,2.453002929680224-5.438003540039062,5.398010253898974-5.764999389648438,8.833404541010168l10.468994140625,2.290008544920056c1.034011840820312-4.306411743160425,4.033004760742188-6.46240234375,8.995010375976562-6.46240234375,4.470993041992188,0,6.707992553710938,1.880996704108838,6.707992553710938,5.643402099609375v1.554000854495825c-3.982009887695312.382003784179688-7.430007934570312.914993286132812-10.34698486328125,1.59600830078125-2.917022705078125.681991577148438-5.56201171875,1.62298583984375-7.933013916014716,2.82098388671875-2.371002197266534,1.20001220703125-4.185012817383722,2.779998779296875-5.439010620118097,4.743988037109375-1.253997802734375,1.9630126953125-1.90899658203125,4.281005859375-1.96197509765625,6.951004028320312,0,3.490005493164062,1.226974487304688,6.326004028320312,3.679977416992188,8.506011962890625h0Zm19.546005249023438-7.688003540039062c-1.635986328125,1.634994506835938-3.680007934570312,2.454010009765625-6.13299560546875,2.454010009765625-3.546005249022528,0-5.317001342772528-1.472015380859375-5.317001342772528-4.416015625,0-2.39898681640625,1.14599609375-4.143997192382812,3.435989379881903-5.233993530273438,2.28900146484375-1.089996337890625,5.777999877929688-1.93499755859375,10.469009399414062-2.537002563476562v2.619003295898438c0,3.106002807617188-.819000244140625,5.478988647460938-2.455001831054688,7.113998413085938h0Zm28.419998168945312,7.606002807617188c3.57000732421875,2.126998901367188,7.783004760742188,3.19000244140625,12.636001586914062,3.19000244140625,5.888992309570312,0,10.522994995117188-1.212005615234375,13.90399169921875-3.639007568359375,3.379013061523438-2.425994873046875,5.070022583007812-5.71099853515625,5.070022583007812-9.856002807617188,0-6.70599365234375-4.69000244140625-10.958999633789062-14.0670166015625-12.759002685546875l-5.64398193359375-1.06298828125c-2.180023193359375-.379989624023438-3.666015625-.858001708984375-4.456024169920966-1.429992675777612-.7919921875-.573013305669519-1.186981201172784-1.432006835939319-1.186981201172784-2.577011108400256,0-1.199386596679688.503997802734375-2.15339660644895,1.514007568359375-2.862396240239832,1.007980346679688-.7080078125,2.438995361328125-1.063003540039062,4.292999267578125-1.063003540039062,4.088973999023438,0,6.842987060546875,1.909011840820312,8.259979248046875,5.725402832040345l9.57000732421875-4.335403442390088c-1.09100341796875-2.561996459960938-3.12200927734375-4.771011352540881-6.093994140625-6.625-2.972015380859375-1.852996826170056-6.693008422851562-2.781005859371362-11.163009643554688-2.781005859371362-5.396987915039062,0-9.679000854492188,1.173019409181506-12.839996337890625,3.51701354980105-3.163009643554688,2.345993041990369-4.744003295898438,5.479995727539062-4.744003295898438,9.405395507808862,0,3.763000488286707,1.076004028320312,6.570999145513269,3.229995727539062,8.423995971685144,2.155014038085938,1.853988647460938,5.602996826171875,3.245010375976562,10.347000122070312,4.170989990234375l5.8070068359375,1.146011352539062c1.852996826171875.382003784179688,3.160995483398438.91400146484375,3.92498779296875,1.593994140625.76300048828125.683013916015625,1.14501953125,1.595001220703125,1.14501953125,2.740997314453125,0,1.199005126953125-.55999755859375,2.180023193359375-1.676010131835938,2.943008422851562-1.119003295898438.764999389648438-2.630996704101562,1.146011352539062-4.540008544921875,1.146011352539062-3.433975219726562,0-5.751998901367188-.764007568359375-6.951995849609375-2.291000366210938-1.253997802734375-1.58001708984375-2.043991088867188-3.108016967773438-2.371002197265625-4.58001708984375l-10.550979614257812,3.352996826171875c.818984985351562,3.545013427734375,3.011993408203125,6.380020141601562,6.583984375,8.506011962890625h0Zm42.119018554688409,0c3.570999145506903,2.126998901367188,7.782989501952216,3.19000244140625,12.635986328125,3.19000244140625,5.888977050780341,0,10.522979736327216-1.212005615234375,13.904022216795966-3.639007568359375,3.378997802734375-2.425994873046875,5.069976806640625-5.71099853515625,5.069976806640625-9.856002807617188,0-6.70599365234375-4.690032958984375-10.958999633789062-14.066986083984375-12.759002685546875l-5.643035888671875-1.06298828125c-2.180999755859375-.379989624023438-3.6669921875-.858001708984375-4.45697021484375-1.429992675777612-.7919921875-.573013305669519-1.186996459960938-1.432006835939319-1.186996459960938-2.577011108400256,0-1.199386596679688.504989624024347-2.15339660644895,1.513961791992188-2.862396240239832,1.009033203125-.7080078125,2.438995361328125-1.063003540039062,4.293029785157159-1.063003540039062,4.089019775389716,0,6.843017578124091,1.909011840820312,8.259979248045966,5.725402832040345l9.570037841796875-4.335403442390088c-1.09100341796875-2.561996459960938-3.12200927734375-4.771011352540881-6.094024658203125-6.625-2.972015380859375-1.852996826170056-6.6929931640625-2.781005859371362-11.162994384764716-2.781005859371362-5.397003173829034,0-9.679000854493097,1.173019409181506-12.840011596680597,3.51701354980105-3.162994384765625,2.345993041990369-4.743988037109375,5.479995727539062-4.743988037109375,9.405395507808862,0,3.763000488286707,1.07598876953125,6.570999145513269,3.230010986328125,8.423995971685144,2.154983520507812,1.853988647460938,5.60296630859375,3.245010375976562,10.346969604492188,4.170989990234375l5.807037353515625,1.146011352539062c1.852996826171875.382003784179688,3.16094970703125.91400146484375,3.92498779296875,1.593994140625.762969970703125.683013916015625,1.144989013671875,1.595001220703125,1.144989013671875,2.740997314453125,0,1.199005126953125-.560028076171875,2.180023193359375-1.675994873046875,2.943008422851562-1.118988037109375.764999389648438-2.631011962890625,1.146011352539062-4.53997802734375,1.146011352539062-3.434051513670966,0-5.75201416015625-.764007568359375-6.952011108398438-2.291000366210938-1.253997802734375-1.58001708984375-2.044021606445312-3.108016967773438-2.371017456054688-4.58001708984375l-10.550994873046875,3.352996826171875c.819000244140625,3.545013427734375,3.011993408204034,6.380020141601562,6.584014892579034,8.506011962890625h0Z"/></svg>